<svg width="171" height="50" viewBox="0 0 171 50" fill="none" xmlns="http://www.w3.org/2000/svg">
<path d="M49.1995 49.9999C46.8248 49.9999 44.9377 49.5229 43.5383 48.5687C42.1389 47.6146 41.3756 46.3 41.2484 44.625H45.5102C45.6162 45.3459 45.9767 45.8972 46.5916 46.2788C47.2277 46.6393 48.097 46.8195 49.1995 46.8195C50.1961 46.8195 50.917 46.6817 51.3622 46.406C51.8287 46.1092 52.0619 45.6957 52.0619 45.1657C52.0619 44.7628 51.9241 44.4554 51.6485 44.2433C51.394 44.0101 50.917 43.8193 50.2173 43.6708L47.6093 43.1302C45.6798 42.7273 44.2592 42.123 43.3475 41.3173C42.4358 40.4904 41.9799 39.4302 41.9799 38.1369C41.9799 36.5678 42.5842 35.3487 43.7928 34.4793C45.0013 33.5888 46.687 33.1436 48.8497 33.1436C50.9912 33.1436 52.698 33.5782 53.9702 34.4475C55.2424 35.2957 55.9421 36.483 56.0693 38.0096H51.8075C51.7227 37.4584 51.4259 37.0449 50.917 36.7693C50.4081 36.4724 49.6872 36.324 48.7543 36.324C47.9062 36.324 47.2701 36.4512 46.846 36.7057C46.4431 36.9389 46.2417 37.2781 46.2417 37.7234C46.2417 38.1051 46.4113 38.4125 46.7506 38.6457C47.0898 38.8578 47.6517 39.0486 48.4362 39.2182L51.3622 39.8225C52.9949 40.1617 54.2246 40.7978 55.0516 41.7308C55.8997 42.6425 56.3237 43.7239 56.3237 44.9748C56.3237 46.5651 55.6983 47.8054 54.4473 48.696C53.2175 49.5653 51.4683 49.9999 49.1995 49.9999Z" fill="#121212"/>
<path d="M24.2906 49.6819V33.4616H28.9659V37.2781H29.0613V49.6819H24.2906ZM35.5812 49.6819V39.6317C35.5812 38.7411 35.348 38.0733 34.8815 37.628C34.4363 37.1827 33.779 36.9601 32.9097 36.9601C32.1676 36.9601 31.4997 37.1297 30.906 37.469C30.3335 37.8082 29.8776 38.2747 29.5384 38.8684C29.2203 39.462 29.0613 40.1617 29.0613 40.9675L28.6479 37.0555C29.1779 35.8681 29.9519 34.9246 30.9696 34.2249C32.0085 33.504 33.2807 33.1436 34.7861 33.1436C36.5884 33.1436 37.9666 33.6524 38.9207 34.6702C39.8749 35.6667 40.3519 37.0131 40.3519 38.7093V49.6819H35.5812Z" fill="#121212"/>
<path d="M14.9332 49.9999C13.131 49.9999 11.5619 49.6501 10.2261 48.9504C8.89036 48.2295 7.85141 47.2329 7.10931 45.9608C6.3884 44.6886 6.02795 43.2256 6.02795 41.5717C6.02795 39.8967 6.3884 38.4337 7.10931 37.1827C7.85141 35.9105 8.87976 34.9246 10.1943 34.2249C11.5089 33.504 13.0355 33.1436 14.7742 33.1436C16.4492 33.1436 17.9016 33.4828 19.1314 34.1613C20.3612 34.8398 21.3153 35.7833 21.9938 36.9919C22.6723 38.2005 23.0116 39.6211 23.0116 41.2537C23.0116 41.593 23.001 41.911 22.9798 42.2078C22.9585 42.4835 22.9267 42.7485 22.8843 43.003H8.82675V39.8543H19.036L18.2091 40.4268C18.2091 39.1122 17.891 38.1475 17.2549 37.5326C16.6401 36.8965 15.7919 36.5784 14.7106 36.5784C13.4596 36.5784 12.4843 37.0025 11.7846 37.8506C11.1061 38.6987 10.7668 39.9709 10.7668 41.6672C10.7668 43.321 11.1061 44.5508 11.7846 45.3565C12.4843 46.1622 13.5232 46.5651 14.9014 46.5651C15.6647 46.5651 16.322 46.4378 16.8733 46.1834C17.4246 45.929 17.838 45.5155 18.1137 44.943H22.5981C22.068 46.512 21.1563 47.7524 19.8629 48.6642C18.5907 49.5547 16.9475 49.9999 14.9332 49.9999Z" fill="#121212"/>
<path d="M0 49.682V26.7827H4.77067V49.682H0Z" fill="#121212"/>
<path d="M165.857 22.8992C165.73 22.4327 165.635 21.9344 165.571 21.4044C165.529 20.8743 165.508 20.2594 165.508 19.5597H165.38V11.8948C165.38 11.2375 165.158 10.7287 164.713 10.3682C164.288 9.98655 163.652 9.79573 162.804 9.79573C161.999 9.79573 161.352 9.93355 160.864 10.2092C160.398 10.4848 160.09 10.8877 159.942 11.4178H155.394C155.606 9.95475 156.359 8.74618 157.652 7.79204C158.945 6.83791 160.716 6.36084 162.963 6.36084C165.296 6.36084 167.077 6.88031 168.306 7.91926C169.536 8.95821 170.151 10.453 170.151 12.4037V19.5597C170.151 20.0898 170.183 20.6305 170.247 21.1817C170.331 21.7118 170.459 22.2843 170.628 22.8992H165.857ZM160.196 23.2172C158.585 23.2172 157.302 22.8144 156.348 22.0087C155.394 21.1817 154.917 20.0898 154.917 18.7328C154.917 17.2274 155.479 16.0188 156.602 15.1071C157.747 14.1741 159.338 13.5699 161.373 13.2942L166.112 12.6263V15.3933L162.168 15.9976C161.32 16.1248 160.695 16.3581 160.292 16.6973C159.889 17.0366 159.687 17.503 159.687 18.0967C159.687 18.6268 159.878 19.0296 160.26 19.3053C160.642 19.5809 161.15 19.7187 161.787 19.7187C162.783 19.7187 163.631 19.4537 164.331 18.9236C165.031 18.3723 165.38 17.7362 165.38 17.0153L165.826 19.5597C165.359 20.7683 164.649 21.68 163.695 22.2949C162.741 22.9098 161.574 23.2172 160.196 23.2172Z" fill="#121212"/>
<path d="M148.431 22.8992V19.3053L148.749 19.3689C148.537 20.5351 147.901 21.468 146.841 22.1677C145.802 22.8674 144.551 23.2173 143.088 23.2173C141.603 23.2173 140.31 22.878 139.208 22.1995C138.126 21.4998 137.289 20.5245 136.695 19.2735C136.101 18.0225 135.804 16.5489 135.804 14.8527C135.804 13.1353 136.112 11.6404 136.727 10.3683C137.342 9.09609 138.2 8.11015 139.303 7.41045C140.427 6.71075 141.731 6.3609 143.215 6.3609C144.763 6.3609 146.014 6.72135 146.968 7.44225C147.943 8.16316 148.516 9.14909 148.685 10.4001L148.335 10.4319V0H153.106V22.8992H148.431ZM144.614 19.4007C145.738 19.4007 146.65 19.0085 147.349 18.224C148.049 17.4183 148.399 16.2733 148.399 14.7891C148.399 13.3049 148.039 12.1705 147.318 11.386C146.618 10.5803 145.696 10.1774 144.551 10.1774C143.448 10.1774 142.536 10.5803 141.815 11.386C141.116 12.1917 140.766 13.3367 140.766 14.8209C140.766 16.3051 141.116 17.4395 141.815 18.224C142.536 19.0085 143.469 19.4007 144.614 19.4007Z" fill="#121212"/>
<path d="M118.53 22.8992V6.67888H123.205V10.4954H123.301V22.8992H118.53ZM129.821 22.8992V12.849C129.821 11.9584 129.588 11.2905 129.121 10.8453C128.676 10.4 128.018 10.1774 127.149 10.1774C126.407 10.1774 125.739 10.347 125.145 10.6863C124.573 11.0255 124.117 11.492 123.778 12.0857C123.46 12.6793 123.301 13.379 123.301 14.1847L122.887 10.2728C123.417 9.08543 124.191 8.14189 125.209 7.44219C126.248 6.72129 127.52 6.36084 129.026 6.36084C130.828 6.36084 132.206 6.86971 133.16 7.88746C134.114 8.884 134.591 10.2304 134.591 11.9266V22.8992H129.821Z" fill="#121212"/>
<path d="M111.842 22.8992C111.715 22.4327 111.619 21.9344 111.556 21.4044C111.513 20.8743 111.492 20.2594 111.492 19.5597H111.365V11.8948C111.365 11.2375 111.142 10.7287 110.697 10.3682C110.273 9.98655 109.637 9.79573 108.789 9.79573C107.983 9.79573 107.336 9.93355 106.849 10.2092C106.382 10.4848 106.075 10.8877 105.926 11.4178H101.378C101.59 9.95475 102.343 8.74618 103.636 7.79204C104.93 6.83791 106.7 6.36084 108.948 6.36084C111.28 6.36084 113.061 6.88031 114.291 7.91926C115.521 8.95821 116.136 10.453 116.136 12.4037V19.5597C116.136 20.0898 116.167 20.6305 116.231 21.1817C116.316 21.7118 116.443 22.2843 116.613 22.8992H111.842ZM106.181 23.2172C104.569 23.2172 103.287 22.8144 102.332 22.0087C101.378 21.1817 100.901 20.0898 100.901 18.7328C100.901 17.2274 101.463 16.0188 102.587 15.1071C103.732 14.1741 105.322 13.5699 107.358 13.2942L112.096 12.6263V15.3933L108.153 15.9976C107.305 16.1248 106.679 16.3581 106.276 16.6973C105.873 17.0366 105.672 17.503 105.672 18.0967C105.672 18.6268 105.863 19.0296 106.244 19.3053C106.626 19.5809 107.135 19.7187 107.771 19.7187C108.768 19.7187 109.616 19.4537 110.315 18.9236C111.015 18.3723 111.365 17.7362 111.365 17.0153L111.81 19.5597C111.344 20.7683 110.633 21.68 109.679 22.2949C108.725 22.9098 107.559 23.2172 106.181 23.2172Z" fill="#121212"/>
<path d="M90.4081 29.7371C88.1606 29.7371 86.3265 29.2601 84.9059 28.3059C83.5065 27.3518 82.6796 26.0584 82.4251 24.4258H86.9414C87.111 24.8287 87.4715 25.1361 88.0227 25.3481C88.5952 25.5602 89.3161 25.6662 90.1854 25.6662C91.6273 25.6662 92.6768 25.3905 93.3341 24.8393C93.9914 24.288 94.32 23.4293 94.32 22.2631V18.7328L94.5745 18.7964C94.3624 19.9838 93.7476 20.9273 92.7298 21.627C91.7121 22.3055 90.4505 22.6447 88.9451 22.6447C87.5033 22.6447 86.2417 22.3161 85.1603 21.6588C84.1002 20.9803 83.2733 20.0368 82.6796 18.8282C82.0859 17.6196 81.7891 16.199 81.7891 14.5664C81.7891 12.9126 82.0965 11.4708 82.7114 10.241C83.3263 9.01121 84.185 8.05708 85.2876 7.37858C86.4113 6.70009 87.7153 6.36084 89.1995 6.36084C90.7261 6.36084 91.9665 6.72129 92.9206 7.44219C93.896 8.1631 94.4685 9.14904 94.6381 10.4L94.4154 10.4318V6.67888H99.0907V22.1995C99.0907 24.5318 98.3168 26.3659 96.769 27.7017C95.2212 29.0586 93.1009 29.7371 90.4081 29.7371ZM90.5989 18.9872C91.7227 18.9872 92.6344 18.6056 93.3341 17.8423C94.0338 17.0578 94.3836 15.9446 94.3836 14.5028C94.3836 13.061 94.0232 11.9584 93.3023 11.1951C92.6026 10.4106 91.6803 10.0184 90.5353 10.0184C89.4327 10.0184 88.521 10.4106 87.8001 11.1951C87.1004 11.9796 86.7506 13.0928 86.7506 14.5346C86.7506 15.9764 87.1004 17.079 87.8001 17.8423C88.521 18.6056 89.4539 18.9872 90.5989 18.9872Z" fill="#121212"/>
<path d="M76.6186 22.8992C76.4914 22.4327 76.396 21.9344 76.3324 21.4044C76.29 20.8743 76.2688 20.2594 76.2688 19.5597H76.1415V11.8948C76.1415 11.2375 75.9189 10.7287 75.4736 10.3682C75.0496 9.98655 74.4135 9.79573 73.5654 9.79573C72.7597 9.79573 72.113 9.93355 71.6253 10.2092C71.1588 10.4848 70.8514 10.8877 70.703 11.4178H66.1549C66.367 9.95475 67.1197 8.74618 68.413 7.79204C69.7064 6.83791 71.4769 6.36084 73.7244 6.36084C76.0567 6.36084 77.8378 6.88031 79.0676 7.91926C80.2973 8.95821 80.9122 10.453 80.9122 12.4037V19.5597C80.9122 20.0898 80.944 20.6305 81.0076 21.1817C81.0924 21.7118 81.2197 22.2843 81.3893 22.8992H76.6186ZM70.9574 23.2172C69.346 23.2172 68.0632 22.8144 67.1091 22.0087C66.1549 21.1817 65.6779 20.0898 65.6779 18.7328C65.6779 17.2274 66.2397 16.0188 67.3635 15.1071C68.5085 14.1741 70.0987 13.5699 72.1342 13.2942L76.873 12.6263V15.3933L72.9293 15.9976C72.0812 16.1248 71.4557 16.3581 71.0528 16.6973C70.65 17.0366 70.4485 17.503 70.4485 18.0967C70.4485 18.6268 70.6394 19.0296 71.021 19.3053C71.4027 19.5809 71.9115 19.7187 72.5476 19.7187C73.5442 19.7187 74.3923 19.4537 75.092 18.9236C75.7917 18.3723 76.1415 17.7362 76.1415 17.0153L76.5868 19.5597C76.1203 20.7683 75.41 21.68 74.4559 22.2949C73.5018 22.9098 72.3356 23.2172 70.9574 23.2172Z" fill="#121212"/>
<path d="M57.6638 23.2172C56.116 23.2172 54.8756 22.8568 53.9427 22.1359C53.0097 21.415 52.4584 20.429 52.2888 19.1781L52.5433 19.1462V29.4191H47.7726V6.67888H52.4478V10.2728L52.1616 10.2092C52.3948 9.02182 53.0309 8.08889 54.0699 7.41039C55.1088 6.71069 56.3916 6.36084 57.9182 6.36084C59.3812 6.36084 60.6428 6.71069 61.703 7.41039C62.7843 8.08889 63.6112 9.05362 64.1837 10.3046C64.7774 11.5556 65.0742 13.0292 65.0742 14.7254C65.0742 16.4429 64.7668 17.9377 64.1519 19.2099C63.537 20.482 62.6783 21.468 61.5757 22.1677C60.4732 22.8674 59.1692 23.2172 57.6638 23.2172ZM56.328 19.4007C57.4518 19.4007 58.3635 18.9978 59.0632 18.1921C59.7629 17.3864 60.1127 16.2414 60.1127 14.7572C60.1127 13.273 59.7523 12.1387 59.0314 11.3541C58.3317 10.5696 57.4093 10.1774 56.2644 10.1774C55.1618 10.1774 54.2501 10.5802 53.5292 11.386C52.8295 12.1705 52.4797 13.3048 52.4797 14.789C52.4797 16.2732 52.8295 17.4182 53.5292 18.2239C54.2501 19.0084 55.183 19.4007 56.328 19.4007Z" fill="#121212"/>
<path d="M37.547 23.2172C35.7659 23.2172 34.1969 22.8674 32.8399 22.1677C31.5041 21.4468 30.4546 20.4502 29.6913 19.1781C28.9492 17.8847 28.5781 16.4005 28.5781 14.7254C28.5781 13.0504 28.9492 11.5874 29.6913 10.3364C30.4546 9.08543 31.5041 8.11009 32.8399 7.41039C34.1969 6.71069 35.7659 6.36084 37.547 6.36084C39.3493 6.36084 40.9183 6.71069 42.2541 7.41039C43.6111 8.11009 44.6606 9.08543 45.4027 10.3364C46.1448 11.5874 46.5159 13.0504 46.5159 14.7254C46.5159 16.4005 46.1342 17.8847 45.3709 19.1781C44.6288 20.4502 43.5792 21.4468 42.2223 22.1677C40.8865 22.8674 39.328 23.2172 37.547 23.2172ZM37.547 19.4643C38.2891 19.4643 38.957 19.2735 39.5507 18.8918C40.1656 18.5102 40.6532 17.9695 41.0137 17.2698C41.3741 16.5489 41.5544 15.6902 41.5544 14.6936C41.5544 13.2306 41.1621 12.1069 40.3776 11.3223C39.6143 10.5166 38.6708 10.1138 37.547 10.1138C36.4232 10.1138 35.4691 10.5166 34.6846 11.3223C33.9213 12.1281 33.5396 13.2518 33.5396 14.6936C33.5396 15.6902 33.7199 16.5489 34.0803 17.2698C34.4408 17.9695 34.9178 18.5102 35.5115 18.8918C36.1264 19.2735 36.8049 19.4643 37.547 19.4643Z" fill="#121212"/>
<path fill-rule="evenodd" clip-rule="evenodd" d="M18.6989 6.67888V22.8992H23.4695V14.4392V10.4954H23.3741V9.65259V6.67888H18.6989Z" fill="#121212"/>
<path d="M23.4695 10.4954V14.4392C23.4695 13.1246 23.83 12.2023 24.5509 11.6722C25.2718 11.1209 26.3955 10.8453 27.9222 10.8453C28.1978 10.8453 28.431 10.8559 28.6219 10.8771C28.7677 10.4207 29.2267 9.34043 29.8963 8.67086C30.3147 8.25238 30.7332 7.8339 31.5702 7.41542C31.5702 7.41542 30.1686 6.36084 28.1766 6.36084C26.8832 6.36084 25.8019 6.72129 24.9325 7.44219C24.2725 7.98954 23.753 8.72634 23.3741 9.65259V10.4954H23.4695Z" fill="#121212"/>
<path d="M9.8912 23.2172C8.34338 23.2172 7.103 22.8568 6.17007 22.1359C5.23714 21.415 4.68586 20.429 4.51624 19.1781L4.77067 19.1462V29.4191H0V6.67888H4.67526V10.2728L4.38902 10.2092C4.62225 9.02182 5.25834 8.08889 6.29729 7.41039C7.33624 6.71069 8.61902 6.36084 10.1456 6.36084C11.6086 6.36084 12.8702 6.71069 13.9304 7.41039C15.0117 8.08889 15.8386 9.05362 16.4111 10.3046C17.0048 11.5556 17.3016 13.0292 17.3016 14.7254C17.3016 16.4429 16.9942 17.9377 16.3793 19.2099C15.7644 20.482 14.9057 21.468 13.8032 22.1677C12.7006 22.8674 11.3966 23.2172 9.8912 23.2172ZM8.55541 19.4007C9.67917 19.4007 10.5909 18.9978 11.2906 18.1921C11.9903 17.3864 12.3401 16.2414 12.3401 14.7572C12.3401 13.273 11.9797 12.1387 11.2588 11.3541C10.5591 10.5696 9.63676 10.1774 8.4918 10.1774C7.38924 10.1774 6.47752 10.5802 5.75661 11.386C5.05691 12.1705 4.70707 13.3048 4.70707 14.789C4.70707 16.2732 5.05691 17.4182 5.75661 18.2239C6.47752 19.0084 7.41045 19.4007 8.55541 19.4007Z" fill="#121212"/>
<path d="M71.7181 32.9427C76.7069 32.9427 81.0636 36.3069 83.4086 41.3124C81.0636 46.3179 76.707 49.682 71.7181 49.682C66.7293 49.6819 62.3718 46.3181 60.0269 41.3124C62.3718 36.3067 66.7293 32.9428 71.7181 32.9427ZM70.8869 38.0683L69.5277 36.9461L69.5367 38.7353L67.8366 38.3282L68.6016 39.9359L66.8983 40.3258L68.2681 41.4341L66.8983 42.5425L68.6016 42.9315L67.8366 44.54L69.5367 44.133L69.5277 45.9222L70.8869 44.7991L71.6364 46.415L72.3859 44.7991L73.7452 45.9222L73.7362 44.133L75.4362 44.54L74.6704 42.9315L76.3746 42.5425L75.0039 41.4341L76.3746 40.3258L74.6704 39.9359L75.4362 38.3282L73.7362 38.7353L73.7452 36.9461L72.3859 38.0683L71.6364 36.4524L70.8869 38.0683Z" fill="#121212"/>
</svg>
