<svg width="204" height="64" viewBox="0 0 204 64" fill="none" xmlns="http://www.w3.org/2000/svg">
<path d="M54.9444 63.44C53.851 63.44 52.771 63.2933 51.7044 63C50.6644 62.7066 49.7044 62.3066 48.8244 61.8C47.9444 61.2666 47.1844 60.6266 46.5444 59.88L49.6644 56.72C50.331 57.4666 51.1044 58.0266 51.9844 58.4C52.8644 58.7733 53.8377 58.96 54.9044 58.96C55.7577 58.96 56.3977 58.84 56.8244 58.6C57.2777 58.36 57.5044 58 57.5044 57.52C57.5044 56.9866 57.2644 56.5733 56.7844 56.28C56.331 55.9866 55.731 55.7466 54.9844 55.56C54.2377 55.3466 53.451 55.12 52.6244 54.88C51.8244 54.6133 51.051 54.28 50.3044 53.88C49.5577 53.4533 48.9444 52.88 48.4644 52.16C48.011 51.4133 47.7844 50.4533 47.7844 49.28C47.7844 48.0533 48.0777 46.9866 48.6644 46.08C49.2777 45.1733 50.1444 44.4666 51.2644 43.96C52.3844 43.4533 53.7044 43.2 55.2244 43.2C56.8244 43.2 58.2644 43.48 59.5444 44.04C60.851 44.6 61.931 45.44 62.7844 46.56L59.6244 49.72C59.0377 49 58.371 48.48 57.6244 48.16C56.9044 47.84 56.1177 47.68 55.2644 47.68C54.491 47.68 53.891 47.8 53.4644 48.04C53.0644 48.28 52.8644 48.6133 52.8644 49.04C52.8644 49.52 53.091 49.8933 53.5444 50.16C54.0244 50.4266 54.6377 50.6666 55.3844 50.88C56.131 51.0666 56.9044 51.2933 57.7044 51.56C58.531 51.8 59.3044 52.1466 60.0244 52.6C60.771 53.0533 61.371 53.6533 61.8244 54.4C62.3044 55.1466 62.5444 56.1066 62.5444 57.28C62.5444 59.1733 61.8644 60.68 60.5044 61.8C59.1444 62.8933 57.291 63.44 54.9444 63.44Z" fill="#121212"/>
<path d="M40.8434 63V51.92C40.8434 50.7734 40.4834 49.84 39.7634 49.12C39.0434 48.4 38.1101 48.04 36.9634 48.04C36.2168 48.04 35.5501 48.2 34.9634 48.52C34.3768 48.84 33.9101 49.2934 33.5634 49.88C33.2434 50.4667 33.0834 51.1467 33.0834 51.92L31.0434 50.88C31.0434 49.36 31.3634 48.04 32.0034 46.92C32.6701 45.7734 33.5768 44.88 34.7234 44.24C35.8968 43.6 37.2168 43.28 38.6834 43.28C40.0968 43.28 41.3634 43.64 42.4834 44.36C43.6034 45.0534 44.4834 45.9734 45.1234 47.12C45.7634 48.24 46.0834 49.4534 46.0834 50.76V63H40.8434ZM27.8434 63V43.68H33.0834V63H27.8434Z" fill="#121212"/>
<path d="M17.4428 63.4C15.4161 63.4 13.6161 62.9733 12.0428 62.12C10.4695 61.24 9.21612 60.04 8.28279 58.52C7.37612 57 6.92279 55.2667 6.92279 53.32C6.92279 51.4 7.36279 49.6933 8.24279 48.2C9.14946 46.68 10.3761 45.48 11.9228 44.6C13.4695 43.6933 15.1895 43.24 17.0828 43.24C18.9495 43.24 20.5895 43.6667 22.0028 44.52C23.4428 45.3467 24.5628 46.4933 25.3628 47.96C26.1895 49.4 26.6028 51.04 26.6028 52.88C26.6028 53.2267 26.5761 53.5867 26.5228 53.96C26.4961 54.3067 26.4295 54.7067 26.3228 55.16L10.0828 55.2V51.28L23.8828 51.24L21.7628 52.88C21.7095 51.7333 21.4961 50.7733 21.1228 50C20.7761 49.2267 20.2561 48.64 19.5628 48.24C18.8961 47.8133 18.0695 47.6 17.0828 47.6C16.0428 47.6 15.1361 47.84 14.3628 48.32C13.5895 48.7733 12.9895 49.4267 12.5628 50.28C12.1628 51.1067 11.9628 52.0933 11.9628 53.24C11.9628 54.4133 12.1761 55.44 12.6028 56.32C13.0561 57.1733 13.6961 57.84 14.5228 58.32C15.3495 58.7733 16.3095 59 17.4028 59C18.3895 59 19.2828 58.84 20.0828 58.52C20.8828 58.1733 21.5761 57.6667 22.1628 57L25.2428 60.08C24.3095 61.1733 23.1628 62 21.8028 62.56C20.4695 63.12 19.0161 63.4 17.4428 63.4Z" fill="#121212"/>
<path d="M0.320007 63V34.08H5.56001V63H0.320007Z" fill="#121212"/>
<path d="M192.47 29.4C190.71 29.4 189.124 28.96 187.71 28.08C186.297 27.2 185.19 26 184.39 24.48C183.59 22.96 183.19 21.2534 183.19 19.36C183.19 17.44 183.59 15.72 184.39 14.2C185.19 12.68 186.297 11.48 187.71 10.6C189.124 9.72003 190.71 9.28003 192.47 9.28003C193.857 9.28003 195.097 9.56003 196.19 10.12C197.284 10.68 198.15 11.4667 198.79 12.48C199.457 13.4667 199.817 14.5867 199.87 15.84V22.8C199.817 24.08 199.457 25.2134 198.79 26.2C198.15 27.1867 197.284 27.9734 196.19 28.56C195.097 29.12 193.857 29.4 192.47 29.4ZM193.43 24.56C194.897 24.56 196.084 24.08 196.99 23.12C197.897 22.1334 198.35 20.8667 198.35 19.32C198.35 18.3067 198.137 17.4134 197.71 16.64C197.31 15.84 196.737 15.2267 195.99 14.8C195.27 14.3467 194.417 14.12 193.43 14.12C192.47 14.12 191.617 14.3467 190.87 14.8C190.15 15.2267 189.577 15.84 189.15 16.64C188.75 17.4134 188.55 18.3067 188.55 19.32C188.55 20.36 188.75 21.28 189.15 22.08C189.577 22.8534 190.15 23.4667 190.87 23.92C191.617 24.3467 192.47 24.56 193.43 24.56ZM198.07 29V23.8L198.91 19.08L198.07 14.44V9.68003H203.27V29H198.07Z" fill="#121212"/>
<path d="M171.035 29.4C169.248 29.4 167.648 28.96 166.235 28.08C164.821 27.2 163.701 26 162.875 24.48C162.075 22.96 161.675 21.2533 161.675 19.36C161.675 17.44 162.075 15.72 162.875 14.2C163.701 12.68 164.808 11.48 166.195 10.6C167.608 9.71996 169.221 9.27996 171.035 9.27996C172.421 9.27996 173.661 9.55996 174.755 10.12C175.875 10.68 176.768 11.4666 177.435 12.48C178.128 13.4666 178.501 14.5866 178.555 15.84V22.72C178.501 23.9733 178.141 25.1066 177.475 26.12C176.808 27.1333 175.915 27.9333 174.795 28.52C173.675 29.1066 172.421 29.4 171.035 29.4ZM171.915 24.56C172.901 24.56 173.755 24.3466 174.475 23.92C175.221 23.4666 175.795 22.8533 176.195 22.08C176.621 21.28 176.835 20.36 176.835 19.32C176.835 18.3066 176.621 17.4133 176.195 16.64C175.795 15.84 175.221 15.2266 174.475 14.8C173.755 14.3466 172.915 14.12 171.955 14.12C170.968 14.12 170.101 14.3466 169.355 14.8C168.635 15.2533 168.061 15.8666 167.635 16.64C167.235 17.4133 167.035 18.3066 167.035 19.32C167.035 20.36 167.235 21.28 167.635 22.08C168.061 22.8533 168.648 23.4666 169.395 23.92C170.141 24.3466 170.981 24.56 171.915 24.56ZM181.755 29H176.555V23.8L177.395 19.08L176.515 14.44V0.0799561H181.755V29Z" fill="#121212"/>
<path d="M155.414 29V17.92C155.414 16.7734 155.054 15.84 154.334 15.12C153.614 14.4 152.68 14.04 151.534 14.04C150.787 14.04 150.12 14.2 149.534 14.52C148.947 14.84 148.48 15.2934 148.134 15.88C147.814 16.4667 147.654 17.1467 147.654 17.92L145.614 16.88C145.614 15.36 145.934 14.04 146.574 12.92C147.24 11.7734 148.147 10.88 149.294 10.24C150.467 9.60003 151.787 9.28003 153.254 9.28003C154.667 9.28003 155.934 9.64003 157.054 10.36C158.174 11.0534 159.054 11.9734 159.694 13.12C160.334 14.24 160.654 15.4534 160.654 16.76V29H155.414ZM142.414 29V9.68003H147.654V29H142.414Z" fill="#121212"/>
<path d="M128.978 29.4C127.218 29.4 125.631 28.96 124.218 28.08C122.805 27.2 121.698 26 120.898 24.48C120.098 22.96 119.698 21.2534 119.698 19.36C119.698 17.44 120.098 15.72 120.898 14.2C121.698 12.68 122.805 11.48 124.218 10.6C125.631 9.72003 127.218 9.28003 128.978 9.28003C130.365 9.28003 131.605 9.56003 132.698 10.12C133.791 10.68 134.658 11.4667 135.298 12.48C135.965 13.4667 136.325 14.5867 136.378 15.84V22.8C136.325 24.08 135.965 25.2134 135.298 26.2C134.658 27.1867 133.791 27.9734 132.698 28.56C131.605 29.12 130.365 29.4 128.978 29.4ZM129.938 24.56C131.405 24.56 132.591 24.08 133.498 23.12C134.405 22.1334 134.858 20.8667 134.858 19.32C134.858 18.3067 134.645 17.4134 134.218 16.64C133.818 15.84 133.245 15.2267 132.498 14.8C131.778 14.3467 130.925 14.12 129.938 14.12C128.978 14.12 128.125 14.3467 127.378 14.8C126.658 15.2267 126.085 15.84 125.658 16.64C125.258 17.4134 125.058 18.3067 125.058 19.32C125.058 20.36 125.258 21.28 125.658 22.08C126.085 22.8534 126.658 23.4667 127.378 23.92C128.125 24.3467 128.978 24.56 129.938 24.56ZM134.578 29V23.8L135.418 19.08L134.578 14.44V9.68003H139.778V29H134.578Z" fill="#121212"/>
<path d="M107.814 37.56C105.761 37.56 103.947 37.1867 102.374 36.44C100.801 35.72 99.5474 34.6934 98.6141 33.36L101.934 30.04C102.681 30.92 103.507 31.5867 104.414 32.04C105.347 32.52 106.467 32.76 107.774 32.76C109.401 32.76 110.681 32.3467 111.614 31.52C112.574 30.6934 113.054 29.5467 113.054 28.08V23.24L113.934 19L113.094 14.76V9.68003H118.294V28C118.294 29.92 117.841 31.5867 116.934 33C116.054 34.44 114.827 35.56 113.254 36.36C111.681 37.16 109.867 37.56 107.814 37.56ZM107.574 28.48C105.841 28.48 104.281 28.0667 102.894 27.24C101.507 26.3867 100.414 25.2267 99.6141 23.76C98.8408 22.2934 98.4541 20.6534 98.4541 18.84C98.4541 17.0267 98.8408 15.4 99.6141 13.96C100.414 12.52 101.507 11.3867 102.894 10.56C104.281 9.7067 105.841 9.28003 107.574 9.28003C109.014 9.28003 110.281 9.56003 111.374 10.12C112.494 10.68 113.374 11.4534 114.014 12.44C114.654 13.4 115.001 14.5334 115.054 15.84V21.92C115.001 23.2 114.641 24.3467 113.974 25.36C113.334 26.3467 112.454 27.12 111.334 27.68C110.241 28.2134 108.987 28.48 107.574 28.48ZM108.614 23.72C109.574 23.72 110.401 23.52 111.094 23.12C111.814 22.6934 112.374 22.12 112.774 21.4C113.174 20.6534 113.374 19.8134 113.374 18.88C113.374 17.92 113.174 17.08 112.774 16.36C112.374 15.64 111.814 15.08 111.094 14.68C110.401 14.2534 109.574 14.04 108.614 14.04C107.654 14.04 106.814 14.2534 106.094 14.68C105.374 15.08 104.814 15.6534 104.414 16.4C104.014 17.12 103.814 17.9467 103.814 18.88C103.814 19.7867 104.014 20.6134 104.414 21.36C104.814 22.08 105.374 22.6534 106.094 23.08C106.814 23.5067 107.654 23.72 108.614 23.72Z" fill="#121212"/>
<path d="M86.2984 29.4C84.5384 29.4 82.9518 28.96 81.5384 28.08C80.1251 27.2 79.0184 26 78.2184 24.48C77.4184 22.96 77.0184 21.2534 77.0184 19.36C77.0184 17.44 77.4184 15.72 78.2184 14.2C79.0184 12.68 80.1251 11.48 81.5384 10.6C82.9518 9.72003 84.5384 9.28003 86.2984 9.28003C87.6851 9.28003 88.9251 9.56003 90.0184 10.12C91.1118 10.68 91.9784 11.4667 92.6184 12.48C93.2851 13.4667 93.6451 14.5867 93.6984 15.84V22.8C93.6451 24.08 93.2851 25.2134 92.6184 26.2C91.9784 27.1867 91.1118 27.9734 90.0184 28.56C88.9251 29.12 87.6851 29.4 86.2984 29.4ZM87.2584 24.56C88.7251 24.56 89.9118 24.08 90.8184 23.12C91.7251 22.1334 92.1784 20.8667 92.1784 19.32C92.1784 18.3067 91.9651 17.4134 91.5384 16.64C91.1384 15.84 90.5651 15.2267 89.8184 14.8C89.0984 14.3467 88.2451 14.12 87.2584 14.12C86.2984 14.12 85.4451 14.3467 84.6984 14.8C83.9784 15.2267 83.4051 15.84 82.9784 16.64C82.5784 17.4134 82.3784 18.3067 82.3784 19.32C82.3784 20.36 82.5784 21.28 82.9784 22.08C83.4051 22.8534 83.9784 23.4667 84.6984 23.92C85.4451 24.3467 86.2984 24.56 87.2584 24.56ZM91.8984 29V23.8L92.7384 19.08L91.8984 14.44V9.68003H97.0984V29H91.8984Z" fill="#121212"/>
<path d="M67.4228 29.4C66.0361 29.4 64.7828 29.12 63.6628 28.56C62.5428 27.9734 61.6494 27.1867 60.9828 26.2C60.3161 25.2134 59.9561 24.08 59.9028 22.8V15.96C59.9561 14.68 60.3161 13.5467 60.9828 12.56C61.6761 11.5467 62.5694 10.7467 63.6628 10.16C64.7828 9.57336 66.0361 9.28003 67.4228 9.28003C69.2094 9.28003 70.8094 9.72003 72.2228 10.6C73.6361 11.48 74.7428 12.68 75.5428 14.2C76.3694 15.72 76.7828 17.44 76.7828 19.36C76.7828 21.2534 76.3694 22.96 75.5428 24.48C74.7428 26 73.6361 27.2 72.2228 28.08C70.8094 28.96 69.2094 29.4 67.4228 29.4ZM56.7028 37.08V9.68003H61.9428V14.76L61.0628 19.44L61.9028 24.12V37.08H56.7028ZM66.5028 24.56C67.4628 24.56 68.3161 24.3467 69.0628 23.92C69.8094 23.4667 70.3828 22.8534 70.7828 22.08C71.2094 21.28 71.4228 20.36 71.4228 19.32C71.4228 18.3067 71.2094 17.4134 70.7828 16.64C70.3828 15.84 69.8094 15.2267 69.0628 14.8C68.3161 14.3467 67.4628 14.12 66.5028 14.12C65.5694 14.12 64.7294 14.3467 63.9828 14.8C63.2361 15.2267 62.6494 15.84 62.2228 16.64C61.8228 17.4134 61.6228 18.3067 61.6228 19.32C61.6228 20.36 61.8228 21.28 62.2228 22.08C62.6494 22.8534 63.2228 23.4667 63.9428 23.92C64.6894 24.3467 65.5428 24.56 66.5028 24.56Z" fill="#121212"/>
<path d="M45.0094 29.4C43.0627 29.4 41.3027 28.96 39.7294 28.08C38.1827 27.1733 36.9427 25.96 36.0094 24.44C35.1027 22.8933 34.6494 21.1733 34.6494 19.28C34.6494 17.3867 35.1027 15.6933 36.0094 14.2C36.916 12.68 38.156 11.48 39.7294 10.6C41.3027 9.69332 43.0494 9.23999 44.9694 9.23999C46.9427 9.23999 48.7027 9.69332 50.2494 10.6C51.8227 11.48 53.0627 12.68 53.9694 14.2C54.876 15.6933 55.3294 17.3867 55.3294 19.28C55.3294 21.1733 54.876 22.8933 53.9694 24.44C53.0627 25.96 51.8227 27.1733 50.2494 28.08C48.7027 28.96 46.956 29.4 45.0094 29.4ZM44.9694 24.52C45.956 24.52 46.8227 24.3067 47.5694 23.88C48.3427 23.4267 48.9294 22.8133 49.3294 22.04C49.756 21.24 49.9694 20.3333 49.9694 19.32C49.9694 18.3067 49.756 17.4133 49.3294 16.64C48.9027 15.8667 48.316 15.2667 47.5694 14.84C46.8227 14.3867 45.956 14.16 44.9694 14.16C44.0094 14.16 43.156 14.3867 42.4094 14.84C41.6627 15.2667 41.076 15.8667 40.6494 16.64C40.2227 17.4133 40.0094 18.3067 40.0094 19.32C40.0094 20.3333 40.2227 21.24 40.6494 22.04C41.076 22.8133 41.6627 23.4267 42.4094 23.88C43.156 24.3067 44.0094 24.52 44.9694 24.52Z" fill="#121212"/>
<path d="M21.8356 29V9.68003H27.0756V29H21.8356ZM27.0756 18.32L25.0356 16.96C25.2756 14.5867 25.969 12.72 27.1156 11.36C28.2623 9.97336 29.9156 9.28003 32.0756 9.28003C33.009 9.28003 33.849 9.44003 34.5956 9.76003C35.3423 10.0534 36.0223 10.5467 36.6356 11.24L33.3556 15C33.0623 14.68 32.7023 14.44 32.2756 14.28C31.8756 14.12 31.409 14.04 30.8756 14.04C29.7556 14.04 28.8356 14.4 28.1156 15.12C27.4223 15.8134 27.0756 16.88 27.0756 18.32Z" fill="#121212"/>
<path d="M11.04 29.4C9.65334 29.4 8.40001 29.12 7.28001 28.56C6.16001 27.9734 5.26667 27.1867 4.60001 26.2C3.93334 25.2134 3.57334 24.08 3.52001 22.8V15.96C3.57334 14.68 3.93334 13.5467 4.60001 12.56C5.29334 11.5467 6.18667 10.7467 7.28001 10.16C8.40001 9.57336 9.65334 9.28003 11.04 9.28003C12.8267 9.28003 14.4267 9.72003 15.84 10.6C17.2533 11.48 18.36 12.68 19.16 14.2C19.9867 15.72 20.4 17.44 20.4 19.36C20.4 21.2534 19.9867 22.96 19.16 24.48C18.36 26 17.2533 27.2 15.84 28.08C14.4267 28.96 12.8267 29.4 11.04 29.4ZM0.320007 37.08V9.68003H5.56001V14.76L4.68001 19.44L5.52001 24.12V37.08H0.320007ZM10.12 24.56C11.08 24.56 11.9333 24.3467 12.68 23.92C13.4267 23.4667 14 22.8534 14.4 22.08C14.8267 21.28 15.04 20.36 15.04 19.32C15.04 18.3067 14.8267 17.4134 14.4 16.64C14 15.84 13.4267 15.2267 12.68 14.8C11.9333 14.3467 11.08 14.12 10.12 14.12C9.18667 14.12 8.34667 14.3467 7.60001 14.8C6.85334 15.2267 6.26667 15.84 5.84001 16.64C5.44001 17.4134 5.24001 18.3067 5.24001 19.32C5.24001 20.36 5.44001 21.28 5.84001 22.08C6.26667 22.8534 6.84001 23.4667 7.56001 23.92C8.30667 24.3467 9.16001 24.56 10.12 24.56Z" fill="#121212"/>
<path d="M81.9688 43C87.9293 43 93.1347 47.0195 95.9365 53C93.1347 58.9806 87.9294 63 81.9688 63C76.008 62.9999 70.8017 58.9808 68 53C70.8017 47.0193 76.0081 43.0001 81.9688 43ZM80.9756 49.124L79.3516 47.7832L79.3623 49.9209L77.3311 49.4346L78.2451 51.3555L76.21 51.8213L77.8467 53.1455L76.21 54.4697L78.2451 54.9346L77.3311 56.8564L79.3623 56.3701L79.3516 58.5078L80.9756 57.166L81.8711 59.0967L82.7666 57.166L84.3906 58.5078L84.3799 56.3701L86.4111 56.8564L85.4961 54.9346L87.5322 54.4697L85.8945 53.1455L87.5322 51.8213L85.4961 51.3555L86.4111 49.4346L84.3799 49.9209L84.3906 47.7832L82.7666 49.124L81.8711 47.1934L80.9756 49.124Z" fill="#121212"/>
</svg>
